**ABCDEFGHIJKLMNOPQRSTUVWXYZabcdefghijklmnopqrstuvwxyz**************************
**PARASOLID !"#$%&'()*+,-./:;<=>?@[\]^_`{|}~0123456789**************************
**PART1;
MC=AMD64;
MC_MODEL=AMD64 Family 25 Model 80 Stepping 0, AuthenticAMD;
MC_ID=unknown;
OS=Windows_NT;
OS_RELEASE=unknown;
FRU=Parasolid Version 35.1, build 256,  4-22-2024;
APPL=SOLIDWORKS 2024-2024282;
SITE=;
USER=unknown;
FORMAT=text;
GUISE=transmit;
KEY=Hopper_from_mesh_upwards;
FILE=Hopper_from_mesh_upwards.x_t;
DATE=Sun Jan 19 12:58:15 2025;
**PART2;
SCH=SCH_3501256_35102;
USFLD_SIZE=0;
**PART3;
**END_OF_HEADER*****************************************************************
T51 : TRANSMIT FILE created by modeller version 350125623 SCH_3501256_35102_1300
6231 0 12 36 CCCI7 lattice222 0 CCCI4 mesh1006 0 I8 polyline1008 0 CCCCCCCDI5 ow
ner1040 0 CCCI16 boundary_lattice222 0 CCCI13 boundary_mesh1006 0 I17 boundary_p
olyline1008 0 CCCA16 index_map_offset0 0 1 dA9 index_map82 0 A17 node_id_index_m
ap82 0 A20 schema_embedding_map82 0 A5 child12 0 A14 lowest_node_id0 0 1 dA16 me
sh_offset_data206 0 Z1 954 2 3 0 0 0 0 0 0 0 1e3 1e-8 0 4 0 1 0 1 1 5 0 6 7 8 0
 0 9 10 11 0 0 0 0 0 0 0 81 255 2 2 918 12 1 13 0 0 0 0 14 70 11 CI9 list_type0
 0 1 uI10 notransmit0 0 1 lCCCDCCDI12 finger_index0 0 1 dI12 finger_block1012 0
 CZ3 0 4 T1 0 0 12 20 1 15 15 13 255 5 31 0 1 0 16 0 0 17 0 51 255 6 30 0 18 19
 0 0 -0 .2 0 0 -1 0 .11 0 0 -1 31 255 7 565 0 1 20 0 21 +-.02 .266 4770489558936
22e-32 1 0 0 0 0 -1 .006 29 255 8 634 0 11 0 0 -.02 .26 477048955893622e-32 19 9
 CCCCCCI5 frame230 0 CA5 owner12 0 Z9 9 0 1 17 0 22 0 V0 16 255 10 20 0 ?23 0 24
 25 0 0 1 18 255 11 600 0 26 0 0 8 1e-5 1 17 255 26 0 27 28 28 11 29 30 0 29 +15
 255 27 537 0 26 31 0 17 28 0 27 26 26 11 32 33 0 0 +17 29 0 34 29 29 11 26 30 0
 32 -16 30 524 0 ?26 35 36 20 0 0 1 16 35 526 0 ?37 38 30 39 0 0 1 16 36 594 0 ?
40 30 41 42 0 0 1 133 255 20 564 0 30 43 7 0 +7 -.02 .26 477048955893622e-32 -.0
2 .26 477048955893622e-32 4.71238898038469 10.99557428756428 31 43 521 0 1 44 20
 45 +-.014 .26 471489017671731e-32 0 1 0 0 0 1 .006 133 44 520 0 33 25 43 0 +43
 -.02 .26 477048955893622e-32 -.02 .26 477048955893622e-32 4.71238898038469 10.9
9557428756428 141 255 45 44 45 45 43 16 33 314 0 ?28 46 47 44 0 0 1 31 25 25 0 1
0 48 44 0 +0 0 0 0 1 0 0 0 1 .11 31 48 73 0 24 49 25 0 +0 0 0 0 1 0 0 0 1 .1 16
 24 51 0 ?50 10 51 48 0 0 1 31 49 74 0 51 52 48 0 +0 .2 0 0 1 0 0 0 1 .1 16 51 1
08 0 ?53 24 54 49 0 0 1 31 52 144 0 54 55 49 0 +0 .21 0 0 1 0 0 0 1 .11 16 54 10
5 0 ?56 51 57 52 0 0 1 31 55 145 0 57 58 52 0 +0 .2 0 0 1 0 0 0 1 .025 16 57 102
 0 ?59 54 60 55 0 0 1 31 58 215 0 60 61 55 0 +0 .21 0 0 1 0 0 0 1 .035 16 60 185
 0 ?62 57 63 58 0 0 1 31 61 218 0 63 64 58 0 +0 .23 0 0 1 0 0 0 1 .025 16 63 246
 0 ?65 60 46 61 0 0 1 31 64 268 0 46 66 61 0 +0 .24 0 0 1 0 0 0 1 .035 16 46 243
 0 ?67 63 33 64 0 0 1 31 66 346 0 47 68 64 0 +-.014 .24 471489017671731e-32 0 1
 0 0 0 1 .006 16 47 311 0 ?69 33 70 66 0 0 1 31 68 438 0 70 71 66 0 +-.014 .23 4
71489017671731e-32 0 1 0 0 0 1 .006 16 70 392 0 ?72 47 73 68 0 0 1 31 71 441 0 7
3 74 68 0 +-.014 .01 471489017671731e-32 0 1 0 0 0 1 .006 16 73 388 0 ?75 70 76
 71 0 0 1 31 74 443 0 76 77 71 0 +-.014 .01 471489017671731e-32 0 1 0 0 0 1 .005
 16 76 393 0 ?78 73 38 74 0 0 1 31 77 558 0 38 39 74 0 --.02 .266 47704895589362
2e-32 1 0 0 0 0 -1 .005 16 38 532 0 ?79 76 35 77 0 0 1 31 39 559 0 35 42 77 0 --
.014 .26 477048955893622e-32 0 -1 0 0 0 -1 .005 31 42 632 0 36 80 39 0 +-.12 .26
6 477048955893622e-32 -1 0 0 0 0 1 .006 31 80 633 0 41 0 42 0 +-.12 .266 4770489
55893622e-32 -1 0 0 0 0 1 .005 16 41 590 0 ?81 36 0 80 0 0 1 17 81 0 82 81 81 0
 83 41 0 0 +15 82 605 0 81 84 85 17 83 0 86 83 83 0 81 41 0 0 -15 86 615 0 83 87
 88 14 255 87 612 89 ?0 90 86 5 91 +0 0 0 90 22 15 88 616 0 40 87 0 17 40 0 88 4
0 40 0 92 36 0 0 +17 92 0 93 92 92 0 40 36 0 0 -15 93 610 0 92 90 34 14 90 607 9
4 ?87 84 93 5 95 -0 0 87 84 22 15 34 611 0 29 90 0 81 1 94 922 96 90 97 0 89 98
 99 14 84 602 98 ?90 100 82 5 101 +0 0 90 31 22 51 95 625 0 90 91 101 0 --.12 .2
66 477048955893622e-32 1 0 0 .006 0 0 -1 13 22 10 0 0 0 0 0 0 9 16 14 16 175 102
 ?103 0 104 5 105 +0 0 103 0 22 81 1 102 926 96 16 106 0 98 107 108 14 103 42 10
7 ?18 16 109 5 19 -0 0 18 16 22 15 104 121 0 56 16 110 50 255 105 141 0 16 111 1
12 0 +0 .21 0 0 1 0 0 0 1 51 111 142 0 113 114 105 0 -0 .21 0 0 -1 0 .025 0 0 -1
 50 112 140 0 115 105 116 0 +0 .2 0 0 1 0 0 0 1 14 115 115 117 ?113 118 119 5 11
2 -0 0 113 118 22 51 116 70 0 118 112 19 0 -0 .2 0 0 -1 0 .1 0 0 -1 14 118 57 12
0 ?115 18 121 5 116 +0 0 115 18 22 50 19 24 0 103 116 6 0 +0 0 0 0 1 0 0 0 1 81
 1 120 932 96 118 122 0 117 123 124 14 18 27 123 ?118 103 125 5 6 -0 0 118 103 2
2 15 121 60 0 53 118 126 17 53 0 121 53 53 0 127 51 0 0 +15 126 61 0 128 118 0 1
7 128 0 126 128 128 0 50 24 0 0 -17 50 0 129 50 50 0 128 24 0 0 +15 129 40 0 50
 103 0 17 127 0 130 127 127 0 53 51 0 0 -15 130 118 0 127 115 0 81 1 123 934 96
 18 131 0 120 132 133 15 125 28 0 23 18 134 17 23 0 125 23 23 0 135 10 0 0 +15 1
34 130 0 136 18 0 17 136 0 134 136 136 0 56 54 0 0 -17 56 0 104 56 56 0 136 54 0
 0 +17 135 0 109 135 135 0 23 10 0 0 -15 109 19 0 135 103 129 80 7 CCCCCDI12 leg
al_owners0 16 1 lCZ1 96 137 138 9000 1 1 1 1 1 1 1 1 0 FFFFTFTFFFFFFFFF1 81 3 13
1 933 139 18 140 123 122 141 142 0 0 81 1 132 936 96 113 141 0 123 143 144 82 25
5 1 133 658309322 14 113 132 132 ?145 115 146 5 111 +0 0 145 115 22 81 3 141 935
 139 113 147 132 131 148 149 0 0 81 1 143 938 96 145 148 0 132 150 151 82 1 144
 707330253 14 145 199 143 ?152 113 153 5 114 -0 0 152 113 22 81 3 148 937 139 14
5 154 143 141 155 156 0 0 81 1 150 940 96 152 155 0 143 157 158 82 1 151 7378044
96 14 152 247 150 ?159 145 160 5 161 -0 0 159 145 22 81 3 155 939 139 152 162 15
0 148 163 164 0 0 81 1 157 942 96 159 163 0 150 165 166 82 1 158 759955668 14 15
9 255 157 ?167 152 168 5 169 +0 0 167 152 22 81 3 163 941 139 159 170 157 155 17
1 172 0 0 81 1 165 944 96 167 171 0 157 173 174 82 1 166 753598675 14 167 320 16
5 ?175 159 176 5 177 +0 0 175 159 22 81 3 171 943 139 167 178 165 163 179 180 0
 0 81 1 173 946 96 175 179 0 165 181 182 82 1 174 895025365 14 175 325 173 ?183
 167 184 5 185 -0 0 183 167 22 81 3 179 945 139 175 186 173 171 187 188 0 0 81 1
 181 948 96 183 187 0 173 189 190 82 1 182 894632154 14 183 402 181 ?191 175 192
 5 193 +0 0 191 175 22 81 3 187 947 139 183 194 181 179 195 196 0 0 81 1 189 950
 96 191 195 0 181 197 198 82 1 190 946536660 14 191 417 189 ?31 183 199 5 200 -0
 0 100 183 22 81 3 195 949 139 191 201 189 187 202 203 0 0 81 1 197 952 96 31 20
2 0 189 204 205 82 1 198 935067860 14 31 535 197 ?100 191 27 5 206 -0 0 84 100 2
2 81 3 202 951 139 31 207 197 195 208 209 0 0 81 1 204 954 96 100 208 0 197 0 21
0 82 1 205 1148780762 14 100 546 204 ?84 31 211 5 212 -0 0 31 191 22 81 3 208 95
3 139 100 213 204 202 0 214 0 0 82 1 210 1148125402 80 3 139 215 216 9000 0 0 0
 0 3 5 0 0 0 FFFFTFFFFFFFFFFF1 1 1 81 1 213 853 217 100 0 208 207 218 219 82 6 2
14 0 1023802006 31156848 0 0 0 80 1 217 0 220 8001 0 0 0 0 3 5 0 0 0 FFFFTFTFFFF
FFFFF2 81 1 207 852 217 31 0 202 201 213 221 81 1 218 854 217 84 0 222 213 223 2
24 83 255 3 219 .792156862745098 .819607843137255 .933333333333333 81 3 222 923
 139 84 218 98 97 106 225 0 0 81 1 223 855 217 90 0 97 218 226 227 83 3 224 .792
156862745098 .819607843137255 .933333333333333 81 3 97 921 139 90 223 94 228 222
 229 0 0 81 1 226 856 217 87 0 228 223 0 230 83 3 227 .792156862745098 .81960784
3137255 .933333333333333 81 3 228 919 139 87 226 89 0 97 231 0 0 83 3 230 .79215
6862745098 .819607843137255 .933333333333333 81 1 89 920 96 87 228 0 0 94 232 82
 6 231 0 1023736892 31156848 0 0 0 82 1 232 1162215642 82 6 229 0 1023736892 311
56848 0 0 0 81 1 98 924 96 84 222 0 94 102 233 81 3 106 925 139 16 234 102 222 2
35 236 0 0 82 6 225 0 1023736892 31156848 0 0 0 81 1 234 839 217 16 0 106 0 237
 238 81 3 235 927 139 103 237 107 106 239 240 0 0 82 6 236 0 1023358252 31156848
 0 0 0 81 1 237 840 217 103 0 235 234 140 241 81 1 107 928 96 103 235 0 102 117
 242 81 3 239 929 139 115 243 117 235 122 244 0 0 82 6 240 0 1023174079 31156848
 0 0 0 81 1 243 843 217 115 0 239 245 147 246 81 1 117 930 96 115 239 0 107 120
 247 81 3 122 931 139 118 245 120 239 131 248 0 0 82 6 244 0 1023288256 31156848
 0 0 0 81 1 245 842 217 118 0 122 140 243 249 82 6 248 0 1023174079 31156848 0 0
 0 81 1 140 841 217 18 0 131 237 245 250 83 3 249 .792156862745098 .819607843137
255 .933333333333333 83 3 250 .792156862745098 .819607843137255 .933333333333333
 82 1 247 714735818 81 1 147 844 217 113 0 141 243 154 251 83 3 246 .79215686274
5098 .819607843137255 .933333333333333 81 1 154 845 217 145 0 148 147 162 252 83
 3 251 .792156862745098 .819607843137255 .933333333333333 81 1 162 846 217 152 0
 155 154 170 253 83 3 252 .792156862745098 .819607843137255 .933333333333333 81
 1 170 847 217 159 0 163 162 178 254 83 3 253 .792156862745098 .819607843137255
 .933333333333333 81 1 178 848 217 167 0 171 170 186 255 83 3 254 .7921568627450
98 .819607843137255 .933333333333333 81 1 186 849 217 175 0 179 178 194 256 83 3
 255 .792156862745098 .819607843137255 .933333333333333 81 1 194 850 217 183 0 1
87 186 201 257 83 3 256 .792156862745098 .819607843137255 .933333333333333 81 1
 201 851 217 191 0 195 194 207 258 83 3 257 .792156862745098 .819607843137255 .9
33333333333333 83 3 258 .792156862745098 .819607843137255 .933333333333333 82 1
 242 660013255 83 3 241 .792156862745098 .819607843137255 .933333333333333 83 3
 238 .792156862745098 .819607843137255 .933333333333333 82 1 233 1162477786 83 3
 221 .792156862745098 .819607843137255 .933333333333333 79 255 15 220 SDL/TYSA_C
OLOUR79 18 216 DOWNSTREAM_FACE_ID15 211 548 0 79 100 259 54 255 212 555 0 100 10
1 206 0 +-.02 .26 477048955893622e-32 0 0 1 .006 .005 1 0 0 51 101 624 0 84 95 2
12 0 --.12 .266 477048955893622e-32 1 0 0 .005 0 0 -1 54 206 552 0 31 212 200 0
 --.02 .26 477048955893622e-32 0 0 1 .006 .006 1 0 0 50 200 436 0 191 206 193 0
 +-.014 .01 471489017671731e-32 0 1 0 0 0 1 51 193 434 0 183 200 185 0 +-.014 .0
1 471489017671731e-32 0 1 0 .006 0 0 1 51 185 343 0 175 193 177 0 --.014 .26 471
489017671731e-32 0 -1 0 .006 0 0 -1 51 177 342 0 167 185 169 0 --.014 .26 471489
017671731e-32 0 -1 0 .005 0 0 -1 50 169 266 0 159 177 161 0 +0 .24 0 0 1 0 0 0 1
 50 161 265 0 152 169 114 0 +0 .23 0 0 1 0 0 0 1 51 114 211 0 145 161 111 0 -0 .
23 0 0 -1 0 .035 0 0 -1 17 79 0 211 79 79 0 260 38 0 0 +15 259 549 0 261 100 0 1
7 261 0 259 261 261 0 37 35 0 0 -17 37 0 176 37 37 0 261 35 0 0 +15 176 323 0 37
 167 262 15 262 410 0 263 167 0 17 263 0 262 263 263 0 78 76 0 0 -17 78 0 199 78
 78 0 263 76 0 0 +15 199 420 0 78 191 264 15 264 421 0 265 191 0 17 265 0 264 26
5 265 0 75 73 0 0 -17 75 0 192 75 75 0 265 73 0 0 +15 192 405 0 75 183 266 15 26
6 406 0 267 183 0 17 267 0 266 267 267 0 72 70 0 0 -17 72 0 160 72 72 0 267 70 0
 0 +15 160 382 0 72 152 268 15 268 249 0 269 152 0 17 269 0 268 269 269 0 65 63
 0 0 -17 65 0 270 65 65 0 269 63 0 0 +15 270 207 0 65 113 0 17 260 0 85 260 260
 0 79 38 0 0 -15 85 606 0 260 84 0 82 6 209 0 1023802006 31156848 0 0 0 82 6 203
 0 1023571525 31156848 0 0 0 82 6 196 0 1023571525 31156848 0 0 0 82 6 188 0 102
3463729 31156848 0 0 0 15 184 328 0 32 175 271 17 32 0 184 32 32 11 28 33 0 28 -
15 271 329 0 69 175 0 17 69 0 271 69 69 0 272 47 0 0 +17 272 0 168 272 272 0 69
 47 0 0 -15 168 293 0 272 159 273 15 273 257 0 67 159 0 17 67 0 273 67 67 0 274
 46 0 0 +17 274 0 275 274 274 0 67 46 0 0 -15 275 253 0 274 145 0 82 6 180 0 102
3626839 31156848 0 0 0 82 6 172 0 1023463729 31156848 0 0 0 82 6 164 0 102357152
5 31156848 0 0 0 82 6 156 0 1023413342 31156848 0 0 0 15 153 203 0 62 145 275 17
 62 0 153 62 62 0 276 60 0 0 +17 276 0 110 276 276 0 62 60 0 0 -15 110 172 0 276
 16 0 82 6 149 0 1023358252 31156848 0 0 0 15 146 136 0 277 113 270 17 277 0 146
 277 277 0 59 57 0 0 -17 59 0 119 59 59 0 277 57 0 0 +15 119 117 0 59 115 130 82
 6 142 0 1023288256 31156848 0 0 0 79 14 138 SWEntUnchanged82 1 124 654180551 82
 1 108 745668813 50 91 627 0 87 0 95 0 +-.12 0 0 -1 0 0 0 0 1 82 1 99 1162608858
 19 17 32 0 1 0 9 5 0 S0 141 21 20 21 21 7 74 4 CI16 index_map_offset0 0 1 dCCZ2
0 15 12 0 0 208 204 278 279 280 281 282 283 284 13 226 2 0 0 0 0 0 0 0 0 81 5 27
8 306 285 1 0 279 0 0 286 0 0 0 0 81 2 279 647 287 1 278 280 0 0 0 288 81 2 280
 653 289 1 279 281 0 0 0 290 81 2 281 654 291 1 280 282 0 0 292 0 81 1 282 661 2
93 1 281 283 0 0 294 81 2 283 682 295 1 282 284 0 0 296 0 81 2 284 757 297 1 283
 13 0 0 0 298 81 2 13 781 299 1 284 2 0 0 0 0 80 2 299 300 301 9000 0 0 0 0 3 5
 0 0 0 FFTFFFFFFFFFFFFF9 1 79 16 301 BODY_RECIPE_200180 2 297 302 303 9000 0 0 0
 0 3 5 0 0 0 FFTFFFFFFFFFFFFF9 1 82 1 298 1 79 24 303 BODY_IN_LIGHTWEIGHT_PERM80
 2 295 304 305 8004 0 0 0 0 3 5 0 0 0 FFTFFFFFFFFFFFFF2 3 83 1 296 1 79 16 305 S
DL/TYSA_DENSITY80 1 293 306 307 9000 1 1 1 1 1 1 1 1 0 FFTFFFFFFFFFFFFF1 82 1 29
4 2565917 79 10 307 BODY_MATCH80 2 291 308 309 9000 0 0 0 0 3 5 0 0 0 FFTFTTTFFT
FFFFFF10 10 98 255 6 292 83 119 101 101 112 49 79 23 309 SWIMPLICITBODYNAME_ID_U
80 2 289 310 311 9000 0 0 0 0 3 5 0 0 0 FFTFFFFFFFFFFFFF9 1 82 1 290 140 79 30 3
11 LAST_BODY_MODIFYING_FEATURE_ID80 2 287 312 313 9000 0 0 0 0 3 5 0 0 0 FFTFFFF
FFFFFFFFF9 1 82 1 288 234 79 19 313 ENT_TIME_STAMP_200180 5 285 314 315 9000 0 0
 0 0 3 6 0 0 0 FFTTTTTTFTTFTTFF2 2 2 2 2 83 1 286 1 79 19 315 BODY_SCALING_FACTO
R80 2 12 316 317 9000 0 0 0 0 3 5 0 0 0 FFTFFFFFFFFFFFFF9 1 82 1 14 109 79 12 31
7 ATOM_ID_20011 0 
